<svg version="1.1" id="Layer_1" xmlns="http://www.w3.org/2000/svg" xmlns:xlink="http://www.w3.org/1999/xlink" x="0px" y="0px" width="100%" viewBox="0 0 928 560" enable-background="new 0 0 928 560" xml:space="preserve">
<path fill="#2E9348" opacity="1.000000" stroke="none" d="M485.519226,344.615723 C488.134949,347.836853 486.492493,349.681152 484.080353,351.435028 C468.596802,362.693176 453.140686,373.989044 437.662415,385.254486 C417.878906,399.653412 397.709412,413.553101 378.375488,428.531708 C344.999817,454.388824 299.129669,456.505707 265.393066,431.389862 C234.892807,408.683289 223.384460,377.642395 231.122604,340.257721 C236.412262,314.702179 251.729233,295.570251 272.353333,280.340546 C300.480743,259.570068 328.627167,238.825378 356.782837,218.093323 C363.347046,213.259842 370.053284,208.616501 376.549957,203.695267 C379.340454,201.581451 381.126831,201.921204 383.057526,204.761917 C386.895081,210.408188 390.762878,216.053528 394.976959,221.417358 C397.811737,225.025589 397.251434,227.310196 393.755737,230.035019 C380.751892,240.171173 372.807007,253.505219 369.717834,269.682922 C364.224365,298.451904 376.963440,325.437714 403.290405,337.670807 C425.069275,347.790558 446.747894,345.221039 467.280792,332.973846 C474.284271,328.796478 474.195679,328.745667 478.794678,335.468536 C480.861420,338.489746 483.131317,341.371979 485.519226,344.615723 M269.905212,327.560883 C273.641968,320.522034 279.149200,314.990082 285.041687,309.787933 C287.343750,307.755585 289.163971,305.349884 286.721619,302.536224 C284.421783,299.886780 281.861420,301.532654 279.626373,303.145599 C259.020691,318.015778 247.679886,349.952820 254.637070,374.455292 C256.811218,382.112427 259.445374,389.730621 264.360352,396.226166 C265.747375,398.059235 267.528564,399.387390 269.914337,397.850006 C272.136658,396.417999 272.990173,394.400696 271.851135,391.838501 C271.378510,390.775360 270.851379,389.731323 270.277710,388.718994 C258.923340,368.681885 258.854431,348.519958 269.905212,327.560883 z"/>
<path fill="#2E9348" opacity="1.000000" stroke="none" d="M537.042236,51.663132 C582.231812,51.157249 619.848083,67.565735 648.542969,101.532890 C681.116394,140.091156 690.423767,184.411667 674.965454,232.967438 C667.775574,255.551620 655.379883,275.172272 637.993530,291.476349 C632.209290,296.900513 632.168396,296.919983 635.745178,304.171631 C639.796509,312.385345 643.966675,320.540527 648.003662,328.761169 C649.093811,330.981049 650.363464,332.526794 653.068726,332.948181 C659.182983,333.900635 663.107910,337.857544 665.820557,343.157745 C680.841553,372.507599 695.966431,401.805206 710.799377,431.249908 C717.952271,445.449036 712.405457,460.998413 698.236694,467.982666 C685.340332,474.339722 668.628967,468.035797 661.798645,454.579529 C647.249817,425.917633 632.542114,397.336212 617.829163,368.757965 C615.029358,363.319641 613.833191,357.819855 616.067871,351.943237 C616.714417,350.243164 616.630005,348.738831 615.815735,347.157013 C610.642212,337.106354 605.492676,327.043335 600.215271,316.750275 C577.247070,325.778442 554.081360,330.467590 529.660339,325.401398 C535.758850,320.350159 540.635742,314.818604 549.831177,314.332520 C596.285156,311.876831 631.287415,289.797913 653.494141,249.111557 C674.388672,210.829529 674.419250,171.313812 654.039795,132.855057 C635.081238,97.077698 604.898193,75.459427 564.931091,67.532997 C506.163666,55.878014 446.895569,89.595833 426.096680,146.521729 C424.162140,151.816483 422.547333,157.329178 421.655792,162.880676 C420.249878,171.635101 412.897522,173.595932 406.601440,177.230225 C407.779724,152.668610 415.326447,130.326065 429.566284,110.534409 C455.823334,74.040230 491.927063,55.009731 537.042236,51.663132 M655.413391,352.028503 C651.901611,345.126770 650.426941,344.742554 643.439819,348.605225 C640.092102,350.455902 636.682495,352.209198 633.220154,353.834564 C627.712830,356.420044 627.166260,357.502411 629.945435,362.961823 C634.551208,372.009216 639.410095,380.927551 644.032471,389.966675 C654.113037,409.679535 664.064148,429.458679 674.169373,449.158752 C677.850769,456.335388 685.848328,459.109406 692.320740,455.737213 C699.668152,451.909088 702.452881,444.173920 698.683716,436.738037 C684.459473,408.676453 670.080811,380.693207 655.413391,352.028503 M613.969666,314.705933 C617.962097,322.352356 622.256714,329.861023 625.829834,337.698639 C627.864929,342.162781 630.199768,340.933350 633.267700,339.527618 C636.585632,338.007294 637.100159,336.092957 635.369507,332.853455 C631.303284,325.242096 627.567139,317.455078 623.610962,309.783783 C622.541931,307.710693 621.786804,304.572998 618.281982,306.792816 C615.630554,308.472168 610.798828,308.859406 613.969666,314.705933 z"/>
<path fill="#2E9348" opacity="1.000000" stroke="none" d="M568.992188,117.001328 C536.256348,101.394371 505.402130,104.175079 476.277985,125.030083 C472.125336,128.003677 468.711517,132.029877 465.051270,135.665070 C460.490723,140.194412 457.183563,140.868103 453.885284,137.750748 C450.859436,134.890884 451.010071,131.591675 455.248688,126.813553 C466.870697,113.712395 480.990356,104.195770 497.697968,98.835732 C521.269287,91.273712 544.696289,92.083023 567.545288,101.572937 C589.374695,110.639374 606.063171,125.723747 617.336853,146.575958 C619.845093,151.215347 622.977295,156.108185 617.424316,160.970901 C615.881653,162.321762 617.213623,163.741837 617.727600,165.062698 C623.093140,178.852371 627.018372,192.903824 625.126282,207.926483 C622.061646,232.259491 612.127930,253.136185 592.302734,268.069641 C563.972595,289.409363 535.129639,310.068298 506.504669,331.016479 C502.610779,333.866028 498.642090,336.618927 494.835968,339.580963 C492.052948,341.746704 490.276611,340.999054 488.249542,338.400543 C483.082153,331.776367 483.100372,331.559235 490.000519,326.527527 C520.145691,304.545227 550.276550,282.543213 580.361755,260.478943 C595.853638,249.117233 606.406982,234.281418 610.423401,215.353439 C615.393311,191.932159 609.607178,170.849258 594.130798,152.943604 C572.211914,127.584122 534.689026,118.621864 503.607239,134.419998 C492.424469,140.103928 483.032471,148.547134 472.929108,155.865067 C448.514008,173.549072 424.286560,191.492630 400.037659,209.404892 C397.357605,211.384613 395.345428,211.596268 393.482361,208.549271 C392.789948,207.416824 391.985107,206.329117 391.092255,205.347763 C388.485748,202.482956 388.865234,200.454544 392.107147,198.103989 C416.503082,180.415726 440.820892,162.618866 465.084473,144.749191 C473.131683,138.822571 481.082306,132.773621 489.493286,127.358376 C513.330322,112.011360 538.677185,109.158417 565.451904,118.143105 C569.186768,119.396393 572.859924,120.833466 576.930664,121.476212 C574.393860,120.040901 571.857056,118.605591 568.992188,117.001328 z"/>
<path fill="#2E9348" opacity="1.000000" stroke="none" d="M601.355408,290.424652 C598.790894,292.029938 596.578186,293.521973 594.270386,294.848572 C589.960754,297.325836 586.273132,296.772980 584.146973,293.446625 C581.953369,290.014740 582.934509,286.646637 587.358826,283.926239 C599.553467,276.427979 610.115601,267.140625 618.667847,255.652710 C631.097778,238.956070 638.309204,220.240387 639.714905,199.432236 C641.198608,177.470245 637.273010,156.552628 625.967102,137.502136 C608.195251,107.556526 582.450928,89.051537 547.496338,84.290298 C546.836853,84.200478 546.168396,84.178871 545.506897,84.101799 C539.667542,83.421509 536.600952,80.549141 537.145081,76.276695 C537.679138,72.082962 541.351074,69.881775 547.154541,70.634789 C588.078186,75.944717 618.516418,97.070633 638.226807,132.953079 C655.093567,163.658615 657.603760,196.193451 646.747131,229.568359 C638.537292,254.806595 623.074158,274.756317 601.355408,290.424652 z"/>
<path fill="#2E9348" opacity="1.000000" stroke="none" d="M442.377075,275.764343 C447.860901,270.323975 452.233185,264.911865 450.812256,256.721649 C449.391937,248.534836 444.930664,242.533295 437.803406,238.841888 C430.772980,235.200638 424.272491,237.702286 418.197388,241.990341 C415.503021,243.892136 414.807129,245.654434 416.873383,248.542816 C430.054108,266.968292 443.084442,285.501495 456.288910,303.909790 C460.038116,309.136536 463.126465,309.580414 468.632751,306.450439 C470.293396,305.506439 472.093140,303.604340 473.806854,306.054565 C475.480988,308.448273 473.206360,309.786804 471.722687,310.886932 C461.960083,318.125854 452.101837,325.235657 442.298004,332.419250 C440.959961,333.399689 439.714111,334.079834 438.409454,332.499817 C437.268555,331.118134 437.316132,329.655579 438.666077,328.513519 C443.651031,324.295929 441.855469,320.070526 438.830933,315.772675 C426.368469,298.063232 413.889160,280.365540 401.482788,262.616821 C398.473633,258.311859 394.808960,256.842285 389.869232,259.040192 C388.357483,259.712860 386.625793,260.566284 385.436615,258.613983 C384.089722,256.402710 385.852386,255.191513 387.328369,254.156387 C399.732880,245.457047 411.473145,235.829620 424.274902,227.687271 C437.062164,219.554138 449.882812,219.948303 458.675507,228.720413 C468.549194,238.570999 469.986298,252.913101 462.154297,265.451874 C458.576782,271.179291 453.896118,275.926300 447.860565,279.119904 C444.035980,281.143616 442.640045,280.319763 442.377075,275.764343 z"/>
</svg>
